<svg width="68" height="68" viewBox="0 0 68 68" fill="none" xmlns="http://www.w3.org/2000/svg">
<circle cx="34" cy="34" r="34" fill="#FE724C"/>
<path d="M53.609 29C52.8356 29 52.2071 29.6197 52.1194 30.3948C51.107 39.3428 43.5752 46.2293 34.5005 46.2191C25.4378 46.199 17.9232 39.3271 16.8857 30.3926C16.7958 29.6181 16.1668 29 15.3937 29C14.5772 29 13.9192 29.6863 14.0081 30.5049C15.1429 40.9548 23.9197 49.009 34.5005 49C45.0792 49.0023 53.8525 40.9505 54.9919 30.5027C55.081 29.6854 54.4242 29 53.609 29Z" fill="white"/>
<path d="M38.2578 33.0561C37.163 31.9703 35.3127 32.7526 35.3127 34.3012V42.7601C35.3127 43.7588 36.1445 44.5629 37.1214 44.4006C39.6561 43.9793 42.0545 42.9502 44.1133 41.4003C44.9015 40.8069 44.9104 39.6541 44.2091 38.9586L38.2578 33.0561Z" fill="white"/>
<path d="M20.2063 29C19.2226 29 18.4269 29.8287 18.5743 30.8097C18.9434 33.2663 19.8574 35.5349 21.2561 37.546C21.8272 38.3672 22.9852 38.4052 23.6942 37.7019L29.452 31.9913C30.5567 30.8955 29.7875 29 28.2381 29H20.2063Z" fill="white"/>
<path d="M24.7999 38.9512C24.1001 39.6453 24.1073 40.7954 24.8923 41.3897C26.9473 42.9454 29.3449 43.9784 31.8798 44.4005C32.8565 44.5632 33.6881 43.759 33.6881 42.7606V34.3014C33.6881 32.7528 31.8377 31.9705 30.743 33.0564L24.7999 38.9512Z" fill="white"/>
<path d="M40.7629 29C39.2135 29 38.4443 30.8955 39.5491 31.9913L45.3228 37.7177C46.0302 38.4194 47.1849 38.3831 47.7525 37.5622C49.1463 35.5467 50.0621 33.2341 50.4284 30.8044C50.576 29.8254 49.7815 29 48.7998 29H40.7629Z" fill="white"/>
</svg>
