<svg width="68" height="68" viewBox="0 0 68 68" fill="none" xmlns="http://www.w3.org/2000/svg">
<circle cx="34" cy="34" r="34" fill="#FE724C"/>
<g clip-path="url(#clip0)">
<path d="M43.7539 32.3555C43.7539 31.2169 43.2843 30.1485 42.4702 29.3764C42.6404 28.6855 42.7285 27.9545 42.7285 27.2285C42.7285 22.1396 38.5889 18 33.5 18C28.4111 18 24.2715 22.1396 24.2715 27.2285C24.2715 27.9395 24.3566 28.6675 24.5198 29.3694C23.7118 30.1375 23.2461 31.2079 23.2461 32.3555C23.2461 34.6175 25.0856 36.457 27.3477 36.457C28.5713 36.457 29.6718 35.9183 30.4238 35.0652C31.1758 35.9183 32.2764 36.457 33.5 36.457C34.7236 36.457 35.8242 35.9183 36.5762 35.0652C37.3282 35.9183 38.4287 36.457 39.6523 36.457C42.0373 36.457 43.7539 34.4853 43.7539 32.3555Z" fill="white"/>
<path d="M29.8242 44.957L32.5397 52.3343C32.6898 52.7348 33.0724 53.0002 33.5 53.0002C33.9276 53.0002 34.3101 52.7348 34.4603 52.3352L39.597 38.5006C39.0137 38.4952 38.4453 38.3935 37.8961 38.2307L29.8242 44.957Z" fill="white"/>
<path d="M33.4999 38.5078C32.4094 38.5078 31.35 38.2174 30.4237 37.6816C29.5135 38.2081 28.4733 38.4905 27.4028 38.5004L29.0614 42.9229L34.5222 38.3722C34.1834 38.43 33.8484 38.5078 33.4999 38.5078Z" fill="white"/>
</g>
<defs>
<clipPath id="clip0">
<rect width="35" height="35" fill="white" transform="translate(16 18)"/>
</clipPath>
</defs>
</svg>
