<svg width="68" height="68" viewBox="0 0 68 68" fill="none" xmlns="http://www.w3.org/2000/svg">
<circle cx="34" cy="34" r="34" fill="#FE724C"/>
<g clip-path="url(#clip0)">
<path d="M28.0095 31.459C29.2712 30.6178 30.8906 30.5697 32.1928 31.3139L34.9301 25.8181H22.5626C21.7374 25.8181 21.2503 26.7466 21.7185 27.4256L25.6054 33.0618C29.6567 30.3608 26.254 32.6291 28.0095 31.459Z" fill="white"/>
<path d="M41.1562 49.9488H34.5254V43.022L40.2302 34.7501C37.1795 32.7163 38.0813 33.3175 37.8532 33.1654C37.2019 32.731 36.3605 32.731 35.7096 33.1652C34.9981 33.6395 34.1387 33.8855 33.2331 33.8252L32.1247 36.0505C31.9454 36.4106 31.5828 36.6189 31.2061 36.6189C30.4525 36.6189 29.9477 35.8217 30.2891 35.1362L31.2754 33.1559C30.6356 32.7379 29.8002 32.7299 29.147 33.1653C28.8834 33.341 29.936 32.6393 26.7699 34.7501L32.4747 43.022V49.9488H25.8439C25.2776 49.9488 24.8185 50.4079 24.8185 50.9742C24.8185 51.5404 25.2776 51.9995 25.8439 51.9995H41.1563C41.7225 51.9995 42.1816 51.5404 42.1816 50.9742C42.1816 50.4079 41.7225 49.9488 41.1562 49.9488Z" fill="white"/>
<path d="M44.4374 25.8183H39.5141L43.1678 18.4825C43.4202 17.9756 43.214 17.36 42.7071 17.1076C42.2001 16.855 41.5845 17.0614 41.3321 17.5682C37.5552 25.1517 38.125 24.0033 34.3479 31.5871C34.4248 31.5494 34.4998 31.5073 34.5718 31.4592C35.914 30.5641 37.6486 30.5642 38.9908 31.4593C40.7936 32.6609 37.3525 30.3671 41.3946 33.0619L45.2816 27.4258C45.75 26.7463 45.2622 25.8183 44.4374 25.8183Z" fill="white"/>
</g>
<defs>
<clipPath id="clip0">
<rect width="35" height="35" fill="white" transform="translate(16 17)"/>
</clipPath>
</defs>
</svg>
