<svg width="68" height="68" viewBox="0 0 68 68" fill="none" xmlns="http://www.w3.org/2000/svg">
<circle cx="34" cy="34" r="34" fill="#F36437"/>
<path d="M41.4135 46.0001C41.2003 46.0009 40.9899 45.9506 40.8002 45.8534L34.0002 42.2934L27.2002 45.8534C26.9794 45.9695 26.7304 46.0213 26.4816 46.003C26.2328 45.9847 25.9941 45.8969 25.7927 45.7497C25.5913 45.6024 25.4353 45.4017 25.3423 45.1701C25.2494 44.9386 25.2232 44.6857 25.2668 44.4401L26.6002 36.9334L21.1068 31.6001C20.9354 31.429 20.8139 31.2146 20.7551 30.9797C20.6964 30.7448 20.7028 30.4983 20.7735 30.2667C20.8508 30.0298 20.9929 29.8192 21.1838 29.6589C21.3747 29.4987 21.6067 29.3951 21.8535 29.3601L29.4535 28.2534L32.8002 21.4134C32.9094 21.188 33.0798 20.9979 33.2921 20.8648C33.5043 20.7318 33.7497 20.6613 34.0002 20.6613C34.2506 20.6613 34.4961 20.7318 34.7083 20.8648C34.9205 20.9979 35.091 21.188 35.2002 21.4134L38.5868 28.2401L46.1868 29.3467C46.4336 29.3818 46.6656 29.4854 46.8565 29.6456C47.0474 29.8059 47.1896 30.0164 47.2668 30.2534C47.3376 30.485 47.3439 30.7314 47.2852 30.9663C47.2265 31.2012 47.1049 31.4157 46.9335 31.5867L41.4402 36.9201L42.7735 44.4267C42.8211 44.6767 42.7962 44.9351 42.7017 45.1713C42.6072 45.4076 42.447 45.6119 42.2402 45.7601C41.9987 45.9293 41.708 46.0137 41.4135 46.0001Z" fill="white"/>
</svg>
