<svg width="68" height="68" viewBox="0 0 68 68" fill="none" xmlns="http://www.w3.org/2000/svg">
<circle cx="34" cy="34" r="34" fill="#FE724C"/>
<g clip-path="url(#clip0)">
<path d="M50.7542 21.2918C47.7117 18.2494 41.9929 18.2494 36.5687 21.0386C36.3723 23.6972 37.369 26.5418 39.53 28.7028C41.2273 30.3994 43.3462 31.3746 45.4665 31.6249C49.5936 26.6437 51.7641 22.3011 50.7542 21.2918ZM45.0213 23.2121C44.554 23.6795 43.7973 23.6795 43.3307 23.2136C42.8626 22.7463 42.8626 21.9888 43.3307 21.5214C43.7973 21.0541 44.554 21.0541 45.0221 21.5214C45.4879 21.9888 45.4879 22.7463 45.0213 23.2121Z" fill="white"/>
<path d="M34.602 22.1831C34.2018 22.4445 33.8054 22.7213 33.4133 23.0137L32.4831 22.5235C31.6717 22.0989 30.6743 22.2459 30.0261 22.8933L23.4834 29.436C23.0116 29.9078 22.7982 30.5782 22.8986 31.2375C22.9998 31.8953 23.4095 32.4689 23.9994 32.7783L25.4834 33.5557C23.9965 37.0227 23.1895 40.4195 22.9695 42.5709L16.5095 44.7932C16.2179 44.8928 16.0171 45.1586 16.0008 45.4657C15.9846 45.7736 16.1551 46.0608 16.4335 46.1907L19.2508 47.5174C19.8023 47.7773 20.2445 48.2203 20.5044 48.7711L21.8311 51.5876C21.9618 51.8652 22.2489 52.0365 22.5553 52.0203C22.8632 52.004 23.129 51.8017 23.2294 51.5123L25.4539 45.042C28.4867 44.5421 33.7478 42.2239 38.317 38.7326L38.8287 40.3125C38.921 40.5982 39.1528 40.8123 39.4451 40.8825C39.7375 40.9533 40.0424 40.864 40.2558 40.6521L40.8029 40.1043C41.2237 39.6827 41.4828 39.1246 41.5242 38.5295L41.7176 35.7521C42.5157 34.9481 43.2724 34.1434 43.9871 33.3453C41.8793 32.8565 39.8372 31.7661 38.1517 30.0806C35.9198 27.848 34.726 24.9908 34.602 22.1831Z" fill="white"/>
</g>
<defs>
<clipPath id="clip0">
<rect width="35" height="35" fill="white" transform="translate(16 18)"/>
</clipPath>
</defs>
</svg>
