<svg width="18" height="19" viewBox="0 0 18 19" fill="none" xmlns="http://www.w3.org/2000/svg">
<path d="M17.12 3.91522L14.29 0.94246C13.7279 0.3513 12.9654 0.0188019 12.17 0.0180664H5.83C5.03462 0.0188019 4.27207 0.3513 3.71 0.94246L0.88 3.91522C0.31723 4.50565 0.000700208 5.30666 0 6.14217V15.7748C0 16.6106 0.316071 17.4121 0.87868 18.0031C1.44129 18.5941 2.20435 18.9261 3 18.9261H15C15.7956 18.9261 16.5587 18.5941 17.1213 18.0031C17.6839 17.4121 18 16.6106 18 15.7748V6.14217C17.9993 5.30666 17.6828 4.50565 17.12 3.91522ZM9 13.6739C7.93913 13.6739 6.92172 13.2312 6.17157 12.4432C5.42143 11.6552 5 10.5865 5 9.47209C5 9.19349 5.10536 8.9263 5.29289 8.72931C5.48043 8.53231 5.73478 8.42164 6 8.42164C6.26522 8.42164 6.51957 8.53231 6.70711 8.72931C6.89464 8.9263 7 9.19349 7 9.47209C7 10.0293 7.21071 10.5636 7.58579 10.9576C7.96086 11.3516 8.46957 11.573 9 11.573C9.53043 11.573 10.0391 11.3516 10.4142 10.9576C10.7893 10.5636 11 10.0293 11 9.47209C11 9.19349 11.1054 8.9263 11.2929 8.72931C11.4804 8.53231 11.7348 8.42164 12 8.42164C12.2652 8.42164 12.5196 8.53231 12.7071 8.72931C12.8946 8.9263 13 9.19349 13 9.47209C13 10.5865 12.5786 11.6552 11.8284 12.4432C11.0783 13.2312 10.0609 13.6739 9 13.6739ZM3.41 4.21985L5.12 2.42359C5.31163 2.23164 5.56523 2.12283 5.83 2.11896H12.17C12.4348 2.12283 12.6884 2.23164 12.88 2.42359L14.59 4.21985H3.41Z" fill="white"/>
</svg>
