<svg width="129" height="25" viewBox="0 0 129 25" fill="none" xmlns="http://www.w3.org/2000/svg">
<path d="M11.3857 1.152V4.44H4.52169V7.992H9.65769V11.184H4.52169V18H0.417688V1.152H11.3857ZM19.6387 18.192C18.3267 18.192 17.1427 17.912 16.0867 17.352C15.0467 16.792 14.2227 15.992 13.6147 14.952C13.0227 13.912 12.7267 12.696 12.7267 11.304C12.7267 9.928 13.0307 8.72 13.6387 7.68C14.2467 6.624 15.0787 5.816 16.1347 5.256C17.1907 4.696 18.3747 4.416 19.6867 4.416C20.9987 4.416 22.1827 4.696 23.2387 5.256C24.2947 5.816 25.1267 6.624 25.7347 7.68C26.3427 8.72 26.6467 9.928 26.6467 11.304C26.6467 12.68 26.3347 13.896 25.7107 14.952C25.1027 15.992 24.2627 16.792 23.1907 17.352C22.1347 17.912 20.9507 18.192 19.6387 18.192ZM19.6387 14.64C20.4227 14.64 21.0867 14.352 21.6307 13.776C22.1907 13.2 22.4707 12.376 22.4707 11.304C22.4707 10.232 22.1987 9.408 21.6547 8.832C21.1267 8.256 20.4707 7.968 19.6867 7.968C18.8867 7.968 18.2227 8.256 17.6947 8.832C17.1667 9.392 16.9027 10.216 16.9027 11.304C16.9027 12.376 17.1587 13.2 17.6707 13.776C18.1987 14.352 18.8547 14.64 19.6387 14.64ZM34.9199 18.192C33.6079 18.192 32.4239 17.912 31.3679 17.352C30.3279 16.792 29.5039 15.992 28.8959 14.952C28.3039 13.912 28.0079 12.696 28.0079 11.304C28.0079 9.928 28.3119 8.72 28.9199 7.68C29.5279 6.624 30.3599 5.816 31.4159 5.256C32.4719 4.696 33.6559 4.416 34.9679 4.416C36.2799 4.416 37.4639 4.696 38.5199 5.256C39.5759 5.816 40.4079 6.624 41.0159 7.68C41.6239 8.72 41.9279 9.928 41.9279 11.304C41.9279 12.68 41.6159 13.896 40.9919 14.952C40.3839 15.992 39.5439 16.792 38.4719 17.352C37.4159 17.912 36.2319 18.192 34.9199 18.192ZM34.9199 14.64C35.7039 14.64 36.3679 14.352 36.9119 13.776C37.4719 13.2 37.7519 12.376 37.7519 11.304C37.7519 10.232 37.4799 9.408 36.9359 8.832C36.4079 8.256 35.7519 7.968 34.9679 7.968C34.1679 7.968 33.5039 8.256 32.9759 8.832C32.4479 9.392 32.1839 10.216 32.1839 11.304C32.1839 12.376 32.4399 13.2 32.9519 13.776C33.4799 14.352 34.1359 14.64 34.9199 14.64ZM43.2892 11.28C43.2892 9.904 43.5452 8.696 44.0572 7.656C44.5852 6.616 45.2972 5.816 46.1932 5.256C47.0892 4.696 48.0892 4.416 49.1932 4.416C50.0732 4.416 50.8732 4.6 51.5932 4.968C52.3292 5.336 52.9052 5.832 53.3212 6.456V0.24H57.4252V18H53.3212V16.08C52.9372 16.72 52.3852 17.232 51.6652 17.616C50.9612 18 50.1372 18.192 49.1932 18.192C48.0892 18.192 47.0892 17.912 46.1932 17.352C45.2972 16.776 44.5852 15.968 44.0572 14.928C43.5452 13.872 43.2892 12.656 43.2892 11.28ZM53.3212 11.304C53.3212 10.28 53.0332 9.472 52.4572 8.88C51.8972 8.288 51.2092 7.992 50.3932 7.992C49.5772 7.992 48.8812 8.288 48.3052 8.88C47.7452 9.456 47.4652 10.256 47.4652 11.28C47.4652 12.304 47.7452 13.12 48.3052 13.728C48.8812 14.32 49.5772 14.616 50.3932 14.616C51.2092 14.616 51.8972 14.32 52.4572 13.728C53.0332 13.136 53.3212 12.328 53.3212 11.304ZM66.4903 18.192C65.1783 18.192 63.9943 17.912 62.9383 17.352C61.8983 16.792 61.0743 15.992 60.4663 14.952C59.8743 13.912 59.5783 12.696 59.5783 11.304C59.5783 9.928 59.8823 8.72 60.4902 7.68C61.0983 6.624 61.9303 5.816 62.9863 5.256C64.0423 4.696 65.2263 4.416 66.5383 4.416C67.8503 4.416 69.0343 4.696 70.0903 5.256C71.1463 5.816 71.9783 6.624 72.5863 7.68C73.1943 8.72 73.4983 9.928 73.4983 11.304C73.4983 12.68 73.1863 13.896 72.5623 14.952C71.9543 15.992 71.1143 16.792 70.0423 17.352C68.9863 17.912 67.8023 18.192 66.4903 18.192ZM66.4903 14.64C67.2743 14.64 67.9383 14.352 68.4823 13.776C69.0423 13.2 69.3223 12.376 69.3223 11.304C69.3223 10.232 69.0503 9.408 68.5063 8.832C67.9783 8.256 67.3223 7.968 66.5383 7.968C65.7383 7.968 65.0743 8.256 64.5463 8.832C64.0183 9.392 63.7543 10.216 63.7543 11.304C63.7543 12.376 64.0103 13.2 64.5223 13.776C65.0503 14.352 65.7063 14.64 66.4903 14.64ZM79.7795 0.24V18H75.6755V0.24H79.7795ZM88.8496 18.192C87.5376 18.192 86.3536 17.912 85.2976 17.352C84.2576 16.792 83.4336 15.992 82.8256 14.952C82.2336 13.912 81.9376 12.696 81.9376 11.304C81.9376 9.928 82.2416 8.72 82.8496 7.68C83.4576 6.624 84.2896 5.816 85.3456 5.256C86.4016 4.696 87.5856 4.416 88.8976 4.416C90.2096 4.416 91.3936 4.696 92.4496 5.256C93.5056 5.816 94.3376 6.624 94.9456 7.68C95.5536 8.72 95.8576 9.928 95.8576 11.304C95.8576 12.68 95.5456 13.896 94.9216 14.952C94.3136 15.992 93.4736 16.792 92.4016 17.352C91.3456 17.912 90.1616 18.192 88.8496 18.192ZM88.8496 14.64C89.6336 14.64 90.2976 14.352 90.8416 13.776C91.4016 13.2 91.6816 12.376 91.6816 11.304C91.6816 10.232 91.4096 9.408 90.8656 8.832C90.3376 8.256 89.6816 7.968 88.8976 7.968C88.0976 7.968 87.4336 8.256 86.9056 8.832C86.3776 9.392 86.1136 10.216 86.1136 11.304C86.1136 12.376 86.3696 13.2 86.8816 13.776C87.4096 14.352 88.0656 14.64 88.8496 14.64ZM103.123 4.416C104.067 4.416 104.891 4.608 105.595 4.992C106.315 5.376 106.867 5.88 107.251 6.504V4.608H111.355V17.976C111.355 19.208 111.107 20.32 110.611 21.312C110.131 22.32 109.387 23.12 108.379 23.712C107.387 24.304 106.147 24.6 104.659 24.6C102.675 24.6 101.067 24.128 99.8349 23.184C98.6029 22.256 97.8989 20.992 97.7229 19.392H101.779C101.907 19.904 102.211 20.304 102.691 20.592C103.171 20.896 103.763 21.048 104.467 21.048C105.315 21.048 105.987 20.8 106.483 20.304C106.995 19.824 107.251 19.048 107.251 17.976V16.08C106.851 16.704 106.299 17.216 105.595 17.616C104.891 18 104.067 18.192 103.123 18.192C102.019 18.192 101.019 17.912 100.123 17.352C99.2269 16.776 98.5149 15.968 97.9869 14.928C97.4749 13.872 97.2189 12.656 97.2189 11.28C97.2189 9.904 97.4749 8.696 97.9869 7.656C98.5149 6.616 99.2269 5.816 100.123 5.256C101.019 4.696 102.019 4.416 103.123 4.416ZM107.251 11.304C107.251 10.28 106.963 9.472 106.387 8.88C105.827 8.288 105.139 7.992 104.323 7.992C103.507 7.992 102.811 8.288 102.235 8.88C101.675 9.456 101.395 10.256 101.395 11.28C101.395 12.304 101.675 13.12 102.235 13.728C102.811 14.32 103.507 14.616 104.323 14.616C105.139 14.616 105.827 14.32 106.387 13.728C106.963 13.136 107.251 12.328 107.251 11.304ZM128.004 4.608L119.604 24.36H115.188L118.26 17.544L112.812 4.608H117.396L120.492 12.984L123.564 4.608H128.004Z" fill="#333333"/>
</svg>
